<svg xmlns="http://www.w3.org/2000/svg" viewBox="0 0 1024 1024" id="lock"><path d="M737.79 922.69H286.21c-53.75 0-97.47-43.71-97.47-97.43V482.28c0-53.72 43.72-97.43 97.47-97.43H737.8c53.74 0 97.46 43.71 97.46 97.43v342.98c0 53.72-43.72 97.43-97.47 97.43zM286.21 424.85c-31.69 0-57.47 25.76-57.47 57.43v342.98c0 31.67 25.78 57.43 57.47 57.43h451.58c31.69 0 57.47-25.76 57.47-57.43V482.28c0-31.67-25.78-57.43-57.46-57.43H286.21z"></path><path d="M699.46 424.84H324.54V288.77c0-103.37 84.09-187.46 187.46-187.46 50.04 0 97.12 19.5 132.57 54.91 35.4 35.4 54.89 82.47 54.89 132.55v136.07zm-334.92-40h294.92v-96.07c0-39.4-15.33-76.42-43.16-104.26-27.89-27.86-64.94-43.2-104.3-43.2-81.31 0-147.46 66.15-147.46 147.46v96.07zM492 686h40v89.49h-40z"></path><path d="M512 706c-37.77 0-68.5-30.73-68.5-68.5S474.23 569 512 569c37.77 0 68.5 30.73 68.5 68.5S549.77 706 512 706zm0-97c-15.71 0-28.5 12.79-28.5 28.5S496.29 666 512 666s28.5-12.79 28.5-28.5S527.71 609 512 609z"></path></svg>